<svg width="512" height="512" viewBox="0 0 512 512" fill="none" xmlns="http://www.w3.org/2000/svg">
  <rect width="512" height="512" rx="120" fill="#F6F0E4"/>
  <path d="M163 316C205 316 236 323 256 336C276 323 307 316 349 316" stroke="#2D8A57" stroke-width="16" stroke-linecap="round"/>
  <path d="M153 355C199 355 235 365 256 382C277 365 313 355 359 355" stroke="#2D8A57" stroke-width="16" stroke-linecap="round"/>
  <path d="M147 394C197 394 234 408 256 429C278 408 315 394 365 394" stroke="#2D8A57" stroke-width="16" stroke-linecap="round"/>
  <path d="M248 213C235 235 229 263 229 293C229 311 231 328 235 344" stroke="#2D8A57" stroke-width="18" stroke-linecap="round"/>
  <path d="M256 205C287 205 314 215 335 234C356 253 370 279 374 311C329 311 292 298 266 273C245 251 232 223 230 198C238 201 247 205 256 205Z" fill="#5E8E2F"/>
  <path d="M221 219C187 219 158 230 137 251C116 272 102 299 98 332C145 332 183 319 209 292C230 270 243 241 245 214C237 216 229 219 221 219Z" fill="#7BAF44"/>
  <path d="M205 239C224 251 239 266 251 284" stroke="#F6F0E4" stroke-width="10" stroke-linecap="round"/>
  <path d="M300 233C283 246 271 260 262 278" stroke="#EEF4DE" stroke-width="10" stroke-linecap="round"/>
</svg>
