<svg width="576" height="768" viewBox="0 0 576 768" fill="none" xmlns="http://www.w3.org/2000/svg">
  <g transform="translate(132 120)">
    <path d="M146 314C188 314 221 321 243 336C265 321 298 314 340 314" stroke="#F6F0E4" stroke-width="16" stroke-linecap="round"/>
    <path d="M136 357C182 357 219 367 243 383C267 367 304 357 350 357" stroke="#F6F0E4" stroke-width="16" stroke-linecap="round"/>
    <path d="M129 400C180 400 220 414 243 436C266 414 306 400 357 400" stroke="#F6F0E4" stroke-width="16" stroke-linecap="round"/>
    <path d="M234 204C221 226 215 255 215 286C215 303 217 319 221 336" stroke="#F6F0E4" stroke-width="18" stroke-linecap="round"/>
    <path d="M243 196C275 196 303 206 325 225C348 245 362 273 367 306C319 306 281 293 254 267C232 244 219 216 216 189C225 193 234 196 243 196Z" fill="#F6F0E4"/>
    <path d="M207 211C171 211 141 223 119 245C97 267 82 295 77 329C126 329 165 315 193 287C215 265 229 235 231 205C223 207 215 211 207 211Z" fill="#F6F0E4"/>
    <path d="M192 233C212 246 228 262 241 281" stroke="#2E5C23" stroke-opacity="0.25" stroke-width="10" stroke-linecap="round"/>
    <path d="M292 226C274 240 261 255 251 273" stroke="#2E5C23" stroke-opacity="0.18" stroke-width="10" stroke-linecap="round"/>
  </g>
  <text x="288" y="510" text-anchor="middle" fill="#F6F0E4" font-family="Georgia, 'Times New Roman', serif" font-size="58" letter-spacing="-0.8">
    GardenBook
  </text>
  <rect x="220" y="530" width="136" height="1.5" rx="0.75" fill="#F6F0E4" fill-opacity="0.38"/>
  <text x="288" y="584" text-anchor="middle" fill="#E1E6D4" font-family="Georgia, 'Times New Roman', serif" font-size="28">
    <tspan x="288" dy="0">Garden planning tools</tspan>
    <tspan x="288" dy="38">for home growers.</tspan>
  </text>
</svg>
